<?xml version="1.0" standalone="no"?>
<!DOCTYPE svg PUBLIC "-//W3C//DTD SVG 20010904//EN"
 "http://www.w3.org/TR/2001/REC-SVG-20010904/DTD/svg10.dtd">
<svg version="1.0" xmlns="http://www.w3.org/2000/svg"
 width="512.000000pt" height="512.000000pt" viewBox="0 0 512.000000 512.000000"
 preserveAspectRatio="xMidYMid meet">

<g transform="translate(0.000000,512.000000) scale(0.100000,-0.100000)"
fill="#000000" stroke="none">
<path d="M504 4451 c-36 -22 -59 -70 -51 -109 3 -15 193 -351 421 -747 l416
-720 -607 -5 c-468 -4 -613 -8 -630 -18 -56 -31 -53 32 -53 -1292 0 -1341 -4
-1262 60 -1295 26 -13 311 -15 2500 -15 2189 0 2474 2 2500 15 64 33 60 -46
60 1295 0 1341 4 1262 -60 1295 -26 13 -234 15 -1772 15 l-1743 1 -450 781
c-468 812 -472 818 -535 818 -14 0 -39 -9 -56 -19z m4396 -2891 l0 -1090
-2340 0 -2340 0 0 1090 0 1090 2340 0 2340 0 0 -1090z"/>
<path d="M1155 2406 c-512 -102 -821 -617 -663 -1106 138 -430 586 -681 1025
-575 98 24 257 104 335 169 422 350 422 982 0 1332 -76 63 -236 144 -332 169
-90 22 -277 28 -365 11z m290 -221 c216 -45 409 -223 478 -440 18 -57 22 -93
22 -190 -1 -104 -5 -130 -27 -193 -37 -104 -83 -176 -158 -252 -76 -76 -167
-132 -265 -163 -57 -18 -93 -22 -190 -22 -104 1 -130 5 -193 27 -105 38 -176
83 -257 163 -193 192 -239 484 -115 731 132 261 418 399 705 339z"/>
<path d="M3655 2406 c-315 -63 -566 -285 -663 -586 -162 -503 172 -1034 700
-1111 167 -24 331 3 493 81 564 273 653 1033 167 1436 -76 63 -236 144 -332
169 -90 22 -277 28 -365 11z m290 -221 c216 -45 409 -223 478 -440 18 -57 22
-93 22 -190 -1 -104 -5 -130 -27 -193 -37 -104 -83 -176 -158 -252 -76 -76
-167 -132 -265 -163 -57 -18 -93 -22 -190 -22 -104 1 -130 5 -193 27 -105 38
-176 83 -257 163 -193 192 -239 484 -115 731 132 261 418 399 705 339z"/>
<path d="M2458 1804 c-30 -16 -58 -61 -58 -94 0 -34 28 -78 60 -95 18 -9 56
-15 100 -15 44 0 82 6 100 15 32 17 60 61 60 95 0 34 -28 78 -60 95 -38 20
-165 20 -202 -1z"/>
<path d="M2380 1353 c-40 -27 -49 -45 -50 -94 0 -41 4 -51 35 -78 l36 -31 159
0 159 0 36 31 c31 27 35 37 35 79 0 42 -4 52 -35 79 l-36 31 -157 0 c-132 0
-162 -3 -182 -17z"/>
<path d="M2158 904 c-30 -16 -58 -61 -58 -94 0 -34 28 -78 60 -95 24 -13 88
-15 400 -15 312 0 376 2 400 15 32 17 60 61 60 95 0 34 -28 78 -60 95 -43 22
-761 22 -802 -1z"/>
</g>
</svg>
